<svg viewBox="0 0 1449 403" fill="none" xmlns="http://www.w3.org/2000/svg"><path fill-rule="evenodd" clip-rule="evenodd" d="M1276.69 116.742c0-3.439 2.77-6.227 6.19-6.227h48.58c8.25 0 14.94-6.723 14.94-15.015 0-8.293-6.69-15.015-14.94-15.015h-32.02c-3.42 0-6.2-2.788-6.2-6.228s2.78-6.227 6.2-6.227h78.71c8.26 0 14.94-6.723 14.94-15.015 0-8.293-6.68-15.015-14.94-15.015h-344.52c-8.25 0-14.94 6.722-14.94 15.015 0 8.292 6.69 15.015 14.94 15.015h122.61c3.42 0 6.2 2.788 6.2 6.227 0 3.44-2.78 6.228-6.2 6.228h-169.3c-8.251 0-14.94 6.722-14.94 15.015 0 8.292 6.689 15.015 14.94 15.015h130.19c3.42 0 6.19 2.788 6.19 6.227 0 3.44-2.77 6.228-6.19 6.228h-27.59c-8.25 0-14.94 6.723-14.94 15.015 0 8.293 6.69 15.015 14.94 15.015h344.52c8.25 0 14.94-6.722 14.94-15.015 0-8.292-6.69-15.015-14.94-15.015h-151.18c-3.42 0-6.19-2.788-6.19-6.228" fill="#EBEFF9"/><path fill-rule="evenodd" clip-rule="evenodd" d="m1361.23 148.68-12.95-12.89c-12.37-12.306-12.37-32.256 0-44.561s32.42-12.305 44.79 0c12.37 12.305 12.37 32.255 0 44.561l-12.96 12.89c-5.21 5.185-13.66 5.185-18.88 0" fill="#014FFF"/><path fill-rule="evenodd" clip-rule="evenodd" d="M1373.84 167.572h-6.34c-2.54 0-4.61-1.99-4.61-4.445 0-2.456 2.07-4.446 4.61-4.446h6.34c2.55 0 4.61 1.99 4.61 4.446 0 2.455-2.06 4.445-4.61 4.445" fill="#101923"/><path fill-rule="evenodd" clip-rule="evenodd" d="M1196.44 273.785c0-4.418-3.55-7.999-7.93-7.999h-7.68c-9.8 0-17.74-8.011-17.74-17.893 0-9.882 7.94-17.893 17.74-17.893h187.43c9.8 0 17.74 8.011 17.74 17.893 0 9.882-7.94 17.893-17.74 17.893h-59.91c-4.38 0-7.94 3.581-7.94 7.999 0 4.418 3.56 7.999 7.94 7.999h6.75c9.64 0 17.46 7.884 17.46 17.609 0 9.724-7.82 17.607-17.46 17.607h-145.86c-8.97 0-16.24-9.793-16.24-18.838 0-9.045 7.27-16.378 16.24-16.378h19.27c4.38 0 7.93-3.581 7.93-7.999" fill="#EBEFF9"/><path fill-rule="evenodd" clip-rule="evenodd" d="M958 337.195c0-1.837.743-3.596 2.059-4.877l18.592-18.087a6.237 6.237 0 0 1 8.698 0l18.591 18.087a6.791 6.791 0 0 1 2.06 4.877v28.568a6.236 6.236 0 0 1-6.24 6.237h-37.523a6.236 6.236 0 0 1-6.237-6.237v-28.568Z" fill="#FF5275"/><path fill-rule="evenodd" clip-rule="evenodd" d="M1088.96 367h6.95c8.89 0 16.09 6.492 16.09 14.5s-7.2 14.5-16.09 14.5H906.086c-8.884 0-16.086-6.492-16.086-14.5s7.202-14.5 16.086-14.5h182.874ZM1163 383c0 7.732-6.27 14-14 14s-14-6.268-14-14c0-7.733 6.27-14 14-14s14 6.267 14 14" fill="#EBEFF9"/></svg>
