<svg xmlns="http://www.w3.org/2000/svg" width="36" height="38" viewBox="0 0 36 38" fill="none">
  <path d="M1.5 10.5771C0.833331 10.1922 0.833333 9.23 1.5 8.8451L6.73334 5.82363C7.4 5.43873 8.23333 5.91986 8.23333 6.68966L8.23333 12.7326C8.23333 13.5024 7.4 13.9835 6.73333 13.5986L1.5 10.5771Z" fill="#EA952B"/>
  <path d="M35.4667 25.7556L27.2333 30.5091L27.2333 21.002L35.4667 25.7556Z" fill="#E5B400"/>
  <circle cx="16.0445" cy="10.1333" r="10.1333" fill="#F4E037"/>
  <circle cx="16.0445" cy="25.3334" r="12.6667" fill="#F1D52B"/>
  <circle cx="12.2444" cy="8.02224" r="2.11111" fill="#00080A"/>
  <circle cx="10.9777" cy="7.6" r="0.844444" fill="white"/>
  <path d="M10.9778 21.1111C10.9778 21.1111 13.2714 23.815 15.2 24.9111C17.8433 26.4134 22.8 26.6 22.8 26.6" stroke="#D8A015"/>
</svg>