<?xml version="1.0" encoding="UTF-8"?>
<svg width="111px" height="102px" viewBox="0 0 111 102" version="1.1" xmlns="http://www.w3.org/2000/svg" xmlns:xlink="http://www.w3.org/1999/xlink">
    <g id="StyleGuide" stroke="none" stroke-width="1" fill="none" fill-rule="evenodd" stroke-linecap="round" stroke-linejoin="round">
        <g id="Illus" transform="translate(-698.000000, -2669.000000)" stroke="#1D1D1B" stroke-width="2.79999983">
            <g id="Group-33" transform="translate(753.659199, 2720.000000) rotate(25.000000) translate(-753.659199, -2720.000000) translate(709.659199, 2686.000000)">
                <path d="M64.9803961,44.7100773 C66.985196,46.0596773 69.7067958,45.5276773 71.0619958,43.5228774 C72.4115957,41.5236775 71.8795957,38.7964777 69.8747958,37.4468778 L42.2723975,19.2524789 L42.2723975,15.3100791 L26.5979984,8.87567947 L8.50999949,30.5252782 L29.7675982,50.046877 L49.910797,66.1804761 C51.9155969,67.530076 54.6315967,67.003676 55.9923967,64.9988761 C57.3419966,62.9940762 56.8099966,60.2668764 54.8051967,58.9172765 L53.4275968,58.0660765 L56.3563966,59.9980764 C58.3611965,61.3532763 61.0827964,60.8212764 62.4379963,58.8164765 C63.7875962,56.8116766 63.2555962,54.0900768 61.2563963,52.7404769 L57.3083966,49.979677 L60.9707964,52.5556769 C62.9811962,53.9164768 65.7027961,53.3844768 67.052396,51.3740769 C68.4019959,49.3692771 67.875596,46.6532772 65.8707961,45.2924773 L60.4387964,41.4788775" id="Stroke-3" fill="#F5F8FF"></path>
                <path d="M17.7466389,42.8564774 L22.7138386,38.0348777 C24.4442385,36.3492778 27.2162384,36.3940778 28.9074383,38.1244777 C30.5930382,39.8604776 30.5482382,42.6324775 28.8178383,44.3180774 L23.8506386,49.1396771 C22.1146387,50.830877 19.3426388,50.786077 17.6570389,49.0500771 C15.977039,47.3196772 16.010639,44.5476773 17.7466389,42.8564774 Z" id="Stroke-7" fill="#F5F8FF"></path>
                <path d="M48.5141571,22.2115187 L36.5861578,27.1283184 C34.351758,28.0467183 31.7925581,26.9883184 30.8741582,24.7483185 C29.9501582,22.5139187 31.0141582,19.9547188 33.248558,19.0307189 L45.1765573,14.1139192 L59.0645565,10.3115194 L78.3845553,22.9003186 L68.9821559,35.5395179" id="Stroke-11" fill="#F5F8FF"></path>
                <path d="M24.6099985,48.3903971 L29.5771982,43.5687974 C31.3075981,41.8831975 34.079598,41.9223975 35.7651979,43.6583974 C37.4507978,45.3943973 37.4115978,48.1663971 35.6811979,49.851997 L30.7139982,54.6735967 C28.9779983,56.3591966 26.2059984,56.3199966 24.5203985,54.5839967 C22.8347986,52.8479969 22.8739986,50.075997 24.6099985,48.3903971 Z" id="Stroke-15" fill="#F5F8FF"></path>
                <path d="M30.9430382,54.4333568 L35.9102379,49.611757 C37.6406378,47.9261571 40.4126376,47.9653571 42.1038375,49.701357 C43.7894374,51.4373569 43.7446374,54.2093568 42.0142375,55.8949567 L37.0470378,60.7165564 C35.3110379,62.4021563 32.5390381,62.3629563 30.8534382,60.6269564 C29.1734383,58.8965565 29.2070383,56.1245567 30.9430382,54.4333568 Z" id="Stroke-19" fill="#F5F8FF"></path>
                <path d="M37.8063977,59.9678364 L40.6399976,57.1902366 C42.3703975,55.5046367 45.1479973,55.5438367 46.8279972,57.2854366 C48.5191971,59.0158365 48.4743971,61.7878363 46.7439972,63.4734362 L43.9103974,66.2510361 C42.1743975,67.936636 39.4023977,67.897436 37.7167978,66.1558361 C36.0311979,64.4254362 36.0703979,61.6534363 37.8063977,59.9678364 Z" id="Stroke-23" fill="#F5F8FF"></path>
                <polygon id="Stroke-27" fill="#FF5275" points="80.4677552 31.3501581 51.4765569 9.70055942 58.2693565 0.600559964 87.2605548 22.2501587"></polygon>
                <polygon id="Stroke-31" fill="#014FFF" points="33.376798 8.62199949 8.98879946 35.3451979 0.599999964 27.6899983 24.9879985 0.966799942"></polygon>
            </g>
        </g>
    </g>
</svg>
