<svg width="44" height="44" viewBox="0 0 44 44" fill="none" xmlns="http://www.w3.org/2000/svg">
<path d="M10.8571 16C13.0046 14.974 15.3367 14.391 17.7143 14.2857C21.1429 14.2857 22.8571 16.8572 26.2857 16.8572C28.6633 16.7519 30.9954 16.1688 33.1429 15.1429L29.7143 13.4286" stroke="black" stroke-width="1.71429" stroke-linecap="round" stroke-linejoin="round"/>
<path d="M10.8571 22.8571C13.0046 21.8312 15.3367 21.2481 17.7143 21.1428C21.1429 21.1428 22.8571 23.7143 26.2857 23.7143C28.6633 23.609 30.9954 23.026 33.1429 22L29.7143 20.2857" stroke="black" stroke-width="1.71429" stroke-linecap="round" stroke-linejoin="round"/>
<path d="M10.8571 29.7143C13.0046 28.6883 15.3367 28.1053 17.7143 28C21.1429 28 22.8571 30.5715 26.2857 30.5715C28.6633 30.4662 30.9954 29.8831 33.1429 28.8572L29.7143 27.1429" stroke="black" stroke-width="1.71429" stroke-linecap="round" stroke-linejoin="round"/>
</svg>
