<?xml version="1.0" encoding="UTF-8"?>
<svg width="16px" height="24px" viewBox="0 0 16 24" version="1.1" xmlns="http://www.w3.org/2000/svg" xmlns:xlink="http://www.w3.org/1999/xlink">
    <defs>
        <filter id="filter-1">
            <feColorMatrix in="SourceGraphic" type="matrix" values="0 0 0 0 0.062745 0 0 0 0 0.098039 0 0 0 0 0.137255 0 0 0 1.000000 0"></feColorMatrix>
        </filter>
    </defs>
    <g id="Compte-Desktop" stroke="none" stroke-width="1" fill="none" fill-rule="evenodd" stroke-linecap="round" stroke-linejoin="round">
        <g id="Fiche-logement" transform="translate(-109.000000, -1412.000000)">
            <g id="Group-2" transform="translate(109.000000, 1410.000000)">
                <g id="HOSTNFLY_PICTO_place" transform="translate(0.000000, 2.000000)" filter="url(#filter-1)">
                    <g>
                        <path d="M15.155,7.586 C15.155,7.561 15.155,7.534 15.155,7.509 L15.147,7.509 C15.0031859,3.66415822 11.8445305,0.621441582 7.997,0.621441582 C4.14946952,0.621441582 0.990814066,3.66415822 0.847,7.509 L0.841,7.509 C0.841,7.534 0.841,7.561 0.841,7.587 C0.841,7.647 0.832,7.706 0.832,7.767 C0.832804377,8.21914066 0.876669091,8.67017707 0.963,9.114 C1.663,14.314 5.428,20.694 7.142,22.996 C7.33969929,23.2623335 7.65180959,23.4193547 7.9835,23.4193547 C8.31519041,23.4193547 8.62730071,23.2623335 8.825,22.996 C10.525,20.703 14.29,14.364 15.025,9.176 C15.1170626,8.7126487 15.1636173,8.24140851 15.164,7.769 C15.164,7.706 15.157,7.647 15.155,7.586 Z M7.978,11.5490001 C6.34388159,11.5494045 4.87044411,10.5653466 4.24481378,9.0557341 C3.61918344,7.54612163 3.96458182,5.80828161 5.11993503,4.65264235 C6.27528824,3.49700309 8.0130427,3.15117451 9.52281001,3.77643111 C11.0325773,4.40168771 12.017,5.87488154 12.017,7.509 C12.017,9.73983992 10.2088399,11.5484478 7.978,11.5490001 L7.978,11.5490001 Z" id="Shape" stroke="#1D1D1B" fill="#000000" fill-rule="nonzero"></path>
                    </g>
                </g>
            </g>
        </g>
    </g>
</svg>
