<svg width="189" height="44" viewBox="0 0 189 44" fill="none" xmlns="http://www.w3.org/2000/svg">
<path d="M-2.39927e-07 9.71112L8.23333 4.95761L8.23333 14.4646L-2.39927e-07 9.71112Z" fill="#EA952B"/>
<path d="M35.4667 25.7556L27.2333 30.5091L27.2333 21.002L35.4667 25.7556Z" fill="#E5B400"/>
<circle cx="16.0445" cy="10.1333" r="10.1333" fill="#F4E037"/>
<circle cx="16.0445" cy="25.3334" r="12.6667" fill="#F1D52B"/>
<circle cx="12.2444" cy="8.02224" r="2.11111" fill="#00080A"/>
<circle cx="10.9777" cy="7.6" r="0.844444" fill="white"/>
<path d="M10.9778 21.1111C10.9778 21.1111 13.2714 23.815 15.2 24.9111C17.8433 26.4134 22.8 26.6 22.8 26.6" stroke="#D8A015"/>
<path d="M50.2667 19.28C50.2667 12.8 53.5467 6 61.5067 6C67.4267 6 71.6267 9.8 71.6667 13.96C71.7067 16.72 69.8267 18.08 67.9067 18.08C66.2667 18.08 64.5867 17.12 63.9467 15.24C62.3867 10.76 62.3067 7.76 60.5067 7.76C58.2667 7.76 56.7067 16.76 60.1067 21.76C61.7067 24.08 64.1067 25.2 66.5067 25.2C68.9867 25.2 71.4667 23.96 72.7867 21.52C72.8667 21.36 72.9467 21.32 73.0667 21.32C73.2267 21.32 73.4267 21.6 73.4267 22C73.4267 28.24 69.0667 32.4 62.4667 32.4C55.1867 32.4 50.2667 27.12 50.2667 19.28ZM86.9123 30.52C85.5923 31.96 83.7523 32.4 81.3923 32.4C77.5523 32.4 74.6323 30.12 74.6323 26.92C74.6323 23.48 77.6723 21.56 82.1123 21.56C82.9123 21.56 84.1923 21.64 85.2723 21.72C85.5523 21.76 85.7123 21.56 85.6723 21.28L84.8323 16.16C84.3923 13.52 83.9123 12.96 83.1523 13.24C81.3923 13.88 84.2323 19.28 80.0723 20.4C79.6723 20.52 79.2723 20.56 78.9523 20.56C75.9523 20.56 74.7923 16.92 76.7523 14.32C78.5123 12 81.6723 11.68 84.5123 11.68C89.0723 11.68 92.3523 13.96 92.9923 17.64L94.7923 28C94.9923 29.2 95.9523 32 93.7923 32H90.5523C88.9523 32 87.9923 31.36 87.4723 30.6C87.3123 30.36 87.1123 30.32 86.9123 30.52ZM86.0723 23.84C85.9923 23.16 85.1523 23.08 84.5923 23.08C83.5923 23.08 82.4323 24.08 82.7923 26.88C83.1123 29.48 84.1523 30.44 85.3123 30.16C85.9923 30 86.7923 29.16 86.5923 26.84L86.0723 23.84ZM105.279 12.12C106.039 11.76 106.959 11.6 108.159 11.6C113.439 11.6 117.759 15.32 117.759 22C117.759 28.68 113.319 32.4 107.839 32.4C106.919 32.4 106.119 32.32 105.399 32.12C105.039 32.04 104.799 32.16 104.839 32.52C104.959 33.24 105.319 34.2 105.319 34.8C105.319 36.08 104.159 37.08 102.639 37.08H98.9595C97.4395 37.08 96.2795 36.08 96.2795 34.8C96.2795 34.08 96.7995 32.84 96.7995 32.12V17.72C96.7995 16.88 96.2395 15.84 96.2395 14.88C96.2395 13.48 97.1995 12.6 98.5995 12.36L102.879 11.64C103.559 11.52 104.079 11.64 104.439 11.92C104.759 12.2 104.999 12.24 105.279 12.12ZM107.759 31C109.199 30.84 109.719 27.6 109.079 21.76C108.439 15.76 107.719 13.16 106.039 13.4C105.119 13.52 104.879 14.56 104.799 16.6V23.76C104.799 28.56 106.239 31.2 107.759 31ZM119.098 6.92C119.098 4.68 120.778 3.2 123.338 3.2C125.898 3.2 127.578 4.68 127.578 6.92C127.578 9.2 125.898 10.68 123.338 10.68C120.778 10.68 119.098 9.2 119.098 6.92ZM119.378 17.72C119.378 16.88 118.818 15.84 118.818 14.88C118.818 13.48 119.778 12.6 121.178 12.36L125.458 11.64C126.578 11.44 127.378 11.88 127.378 12.88V27.04C127.378 27.76 127.898 29 127.898 29.72C127.898 31 126.738 32 125.218 32H121.538C120.018 32 118.858 31 118.858 29.72C118.858 29 119.378 27.76 119.378 27.04V17.72ZM137.848 32.4C132.568 32.4 128.968 27.92 128.968 22.04C128.968 16.92 131.568 11.56 137.888 11.56C142.608 11.56 145.968 14.52 145.968 17.76C146.008 19.96 144.328 21.04 142.648 21.04C141.208 21.04 139.728 20.28 139.208 18.76C137.968 15.28 138.528 12.96 137.088 12.96C135.328 12.96 134.768 19.2 136.688 22C137.648 23.36 139.248 24.08 141.088 24.08C142.928 24.08 145.008 23.36 146.848 22C147.168 21.76 147.368 21.92 147.368 22.4C147.368 28.04 143.088 32.4 137.848 32.4ZM157.353 14.92C158.873 13.28 160.993 11.68 162.913 11.68C165.873 11.68 167.153 13.44 167.393 16.2C167.833 20.84 167.993 23.44 168.473 28.08C168.553 28.72 168.633 29.08 168.753 29.72C169.033 31.32 167.793 32 166.593 32H162.353C161.153 32 159.793 31.28 159.793 29.72C159.793 28.68 160.193 28.08 160.193 27.04V20.2C160.193 17.84 159.713 16.84 158.633 16.88C157.393 16.96 156.753 17.8 156.753 19.04V27.04C156.753 27.76 157.273 29 157.273 29.72C157.273 31 156.113 32 154.593 32H150.913C149.393 32 148.233 31 148.233 29.72C148.233 29 148.753 27.76 148.753 27.04V11.44C148.753 10.6 148.193 9.56 148.193 8.6C148.193 7.2 149.153 6.32 150.553 6.08L154.833 5.36C155.953 5.16 156.753 5.6 156.753 6.6V14.72C156.753 15.28 156.993 15.32 157.353 14.92ZM176.588 20.4C177.508 22.72 179.748 23.96 182.228 23.96C184.028 23.96 185.988 23.28 187.708 22C188.028 21.76 188.228 21.92 188.228 22.4C188.228 28.04 183.948 32.4 178.708 32.4C173.428 32.4 169.828 27.92 169.828 22.04C169.828 16.92 172.788 11.56 178.748 11.56C181.908 11.56 184.428 13.08 185.388 15.32C186.468 17.84 185.468 19.96 182.508 19.96H176.908C176.628 19.96 176.468 20.12 176.588 20.4ZM176.548 18.48L179.108 18.2C179.428 18.16 179.588 17.92 179.588 17.64C179.588 16.36 179.348 12.96 177.508 12.96C176.228 12.96 175.668 15.56 175.988 18.08C176.028 18.36 176.268 18.52 176.548 18.48Z" fill="black"/>
</svg>
