<?xml version="1.0" encoding="UTF-8"?>
<svg width="155px" height="185px" viewBox="0 0 155 185" version="1.1" xmlns="http://www.w3.org/2000/svg" xmlns:xlink="http://www.w3.org/1999/xlink">
    <g id="UIOnboarding" stroke="none" stroke-width="1" fill="none" fill-rule="evenodd">
        <g id="connexion" transform="translate(-271.000000, -276.000000)" fill-rule="nonzero">
            <g id="2Fichier-4" transform="translate(271.000000, 276.000000)">
                <path d="M77.5262593,55.112062 C78.6757715,55.1433638 79.7884868,55.5240296 80.7162949,56.2033899 C81.0252065,54.8232965 81.506701,53.4876025 82.1494124,52.2278381 C79.0463197,53.1127222 75.7549121,53.0919169 72.6632539,52.167875 C73.3666671,53.4605495 73.8988132,54.8392917 74.2462791,56.2693493 C75.1896753,55.5463667 76.3380455,55.1411831 77.5262593,55.112062 Z" id="Path" fill="#FFFFFF"></path>
                <path d="M116.004564,75.4095628 C116.004564,74.9238619 116.106502,74.4681425 116.148476,73.9944342 C114.112948,73.1782723 112.273608,71.9397832 110.751799,70.3606719 C106.446087,75.8613381 99.2095105,78.1615011 92.5180448,76.1563144 C85.826579,74.1511277 81.0475319,68.2503233 80.4764426,61.2882587 C80.4404647,61.1563399 80.3205386,61.060399 80.3205386,60.9164876 C80.3683016,59.8840438 79.8446925,58.9089141 78.957683,58.3784091 C78.0706734,57.8479041 76.9638562,57.8479041 76.0768467,58.3784091 C75.1898372,58.9089141 74.6662281,59.8840438 74.7139911,60.9164876 C74.7139911,61.0184248 74.6240465,61.0783879 74.6060576,61.1743288 C74.2247509,68.0279345 69.756272,73.9785722 63.2808786,76.2559797 C56.8054851,78.5333871 49.595824,76.689972 45.0082839,71.5839186 C43.245301,73.0411796 41.1777336,74.0841844 38.9580096,74.6360391 C38.9580096,74.8998766 39.0359616,75.1457252 39.0359616,75.4095628 C39.0104142,83.3258167 32.9867286,89.9329414 25.1065394,90.6881542 L25.1065394,92.7089098 C25.1102053,96.6046825 25.4189597,100.494186 26.0299707,104.341746 C29.30455,104.670668 31.9103498,107.231583 32.296112,110.499954 L34.1609637,128.488876 C34.2988787,128.746718 34.4427901,128.998563 34.5867015,129.256404 L37.8307038,110.026246 C38.1459262,108.16269 39.1930122,106.502465 40.738913,105.415085 C42.2737713,104.311095 44.1913687,103.878229 46.0516414,104.215824 C49.9213664,104.884029 52.5187597,108.560092 51.856067,112.430765 L49.6614185,125.424763 L49.3496105,127.26563 C56.4227223,135.507801 66.8104144,140.15597 77.6692679,139.937795 C88.5281213,139.71962 98.7207242,134.657953 105.457059,126.138324 C105.702908,125.832512 105.996727,125.574671 106.230583,125.262863 C106.551924,124.834408 107.077434,124.609933 107.609157,124.673995 C108.140881,124.738057 108.598036,125.080924 108.808419,125.573441 C109.018801,126.065958 108.950447,126.6333 108.629106,127.061755 C101.70177,136.288649 91.0882602,142.027619 79.5743996,142.772308 C68.0605391,143.516997 56.7961828,139.193035 48.7379871,130.93537 L46.4294087,144.594958 C54.8055117,152.600916 65.9394614,157.0794 77.5262593,157.103256 C102.932614,157.103256 129.933987,134.533154 129.933987,92.6969172 L129.933987,90.6761616 C122.058351,89.9214077 116.036261,83.321218 116.004564,75.4095628 L116.004564,75.4095628 Z M99.3348296,98.9750511 C100.990664,98.9750511 102.332983,100.31737 102.332983,101.973205 C102.332983,103.629039 100.990664,104.971359 99.3348296,104.971359 C97.678995,104.971359 96.3366758,103.629039 96.3366758,101.973205 C96.3366758,100.31737 97.678995,98.9750511 99.3348296,98.9750511 Z M81.8615896,111.78916 L76.6987689,111.78916 C75.8708516,111.78916 75.199692,111.118001 75.199692,110.290083 C75.199692,109.462166 75.8708516,108.791006 76.6987689,108.791006 L81.8615896,108.791006 C85.4568444,108.976603 88.2767223,111.945805 88.2767223,115.545847 C88.2767223,119.145889 85.4568444,122.115091 81.8615896,122.300687 L76.6987689,122.300687 C75.8708516,122.300687 75.199692,121.629528 75.199692,120.80161 C75.199692,119.973693 75.8708516,119.302533 76.6987689,119.302533 L81.8615896,119.302533 C83.8066816,119.128594 85.2973266,117.498701 85.2973266,115.545847 C85.2973266,113.592993 83.8066816,111.963099 81.8615896,111.78916 Z M57.1448102,98.9750511 C58.8006448,98.9750511 60.1429639,100.31737 60.1429639,101.973205 C60.1429639,103.629039 58.8006448,104.971359 57.1448102,104.971359 C55.4889756,104.971359 54.1466565,103.629039 54.1466565,101.973205 C54.1466565,100.31737 55.4889756,98.9750511 57.1448102,98.9750511 Z" id="Shape" fill="#FFFFFF"></path>
                <path d="M139.366178,95.0774513 C139.005775,93.9444965 138.376185,92.9157546 137.531308,92.0792975 C137.073945,91.6827643 136.570656,91.3425408 136.032231,91.0659216 C135.604911,90.8190283 135.152672,90.618033 134.683062,90.4662908 L134.533154,90.508265 C134.002626,90.5897558 133.468243,90.6437946 132.93214,90.6701653 L132.93214,92.6909209 C132.914502,96.7325837 132.63207,100.768748 132.086661,104.77348 L132.458432,104.77348 C136.226214,104.755703 139.365305,101.881229 139.713964,98.1295718 C139.774584,97.8924236 139.822621,97.652236 139.857875,97.4100149 C139.817515,97.1312469 139.761461,96.8549778 139.689979,96.5825244 C139.635503,96.0708056 139.526964,95.5662986 139.366178,95.0774513 L139.366178,95.0774513 Z" id="Path" fill="#FFFFFF"></path>
                <path d="M22.5401198,104.791469 L22.6600459,104.791469 C22.7919647,104.737503 22.9298798,104.707521 23.0617985,104.659551 C22.4368369,100.706567 22.1200774,96.7109869 22.114382,92.7089098 L22.114382,90.6881542 L21.9464853,90.6881542 C21.4487918,90.6341874 20.9331094,90.6281911 20.4474085,90.5262539 L20.3454712,90.5262539 C19.8592303,90.6744343 19.3907142,90.8755142 18.9483316,91.1258846 C17.2663189,92.0854582 16.0394326,93.6795464 15.542429,95.5511596 C15.3980288,96.0242816 15.2996329,96.510237 15.2486099,97.002266 C15.2486099,97.1521736 15.1646616,97.2780961 15.1646616,97.4340001 C15.2073148,97.8398352 15.2855681,98.2411343 15.3985176,98.6332616 C15.952699,102.15628 18.9739072,104.761469 22.5401198,104.791469 Z" id="Path" fill="#FFFFFF"></path>
                <path d="M43.1734138,148.438591 L36.6134534,138.844499 C36.0895205,138.07571 35.3660473,137.464178 34.5207421,137.075589 L33.0456505,136.643855 C31.7824876,136.491152 30.5063636,136.795294 29.447866,137.501327 C28.3130496,138.275239 27.532949,139.469022 27.2798121,140.819086 C27.0266753,142.169149 27.3213231,143.564447 28.0986968,144.696896 L34.7785833,154.452888 C35.2430491,155.136918 35.0659832,156.067856 34.382827,156.533607 C29.4064469,159.930452 26.9739969,165.996182 28.2246193,171.89015 C28.3205602,172.339873 28.3865196,172.789596 28.5184383,173.239319 C28.7598336,174.030774 28.3143124,174.868139 27.5230513,175.110167 C26.7326399,175.341104 25.9023226,174.899332 25.6522034,174.11478 C23.5021421,167.138279 25.8121259,159.555455 31.4866105,154.962574 L25.6222218,146.393851 C23.9786639,143.991811 23.7365288,140.896961 24.9865128,138.268536 C26.2364968,135.640111 28.7899721,133.874752 31.690485,133.633708 L31.2467582,129.388323 L30.2813527,120.070061 L29.3219435,110.817758 C29.0923718,108.805784 27.4012695,107.279166 25.3763732,107.255952 C25.1781076,107.223146 24.9776796,107.205107 24.7767425,107.201985 C24.3768004,107.265456 23.9886895,107.388762 23.6254514,107.56776 C23.4543256,107.62938 23.2879767,107.703536 23.1277579,107.789623 C21.7251179,108.587499 20.9416337,110.1521 21.1429801,111.753182 L23.7034034,136.475958 C23.7277148,136.739566 23.68005,137.004831 23.5654884,137.243485 C23.5654884,137.501327 23.715396,137.72319 23.715396,137.987028 L23.715396,151.352797 C23.7087866,155.091271 20.678047,158.119328 16.9395686,158.122628 C15.3984505,158.101561 13.9133686,157.541473 12.7421534,156.539603 C11.8960524,159.011174 9.58003672,160.677839 6.96770928,160.695044 L6.18818931,160.695044 C5.64022174,160.661187 5.0994998,160.552236 4.58101562,160.371243 L4.58101562,166.859248 C4.56232595,170.84388 6.17679086,174.662252 9.04842797,177.424742 C12.2979034,180.445015 16.6067546,182.062989 21.0410429,181.927969 L32.6139163,181.688116 C38.3408775,181.199671 43.327856,177.583477 45.5719368,172.291903 C49.1342965,166.353584 49.3612834,158.992401 46.1715675,152.845877 L43.1734138,148.438591 Z" id="Path" fill="#FFFFFF"></path>
                <path d="M43.8270113,141.998557 L46.1715675,128.051146 L46.5013644,126.09635 L46.6152943,125.406774 L46.8011798,124.303454 L48.8878948,111.95106 C49.0756757,110.874197 48.8271122,109.766877 48.1970857,108.873589 C47.5670592,107.980302 46.6073883,107.374518 45.5299626,107.189992 C44.4531328,107.004083 43.346584,107.254286 42.4544893,107.885389 C41.5623946,108.516493 40.9580786,109.476625 40.7748908,110.553921 L36.9492466,133.243948 L36.6794128,134.844962 C37.6319706,135.442796 38.4489677,136.23324 39.0779358,137.165533 L43.5211996,143.653538 L43.8270113,141.998557 Z" id="Path" fill="#FFFFFF"></path>
                <path d="M16.9395686,155.124474 C19.0212394,155.121173 20.7079444,153.434468 20.711246,151.352797 L20.711246,137.987028 L20.711246,137.939057 C20.6986073,137.373421 20.5527465,136.81874 20.2855082,136.320054 C19.5202002,134.748445 17.7687093,133.916157 16.0668721,134.315407 C14.3650349,134.714656 13.1664167,136.239038 13.1798838,137.987028 L13.1798838,151.352797 C13.1798733,153.431162 14.8612136,155.117866 16.9395686,155.124474 L16.9395686,155.124474 Z" id="Path" fill="#FFFFFF"></path>
                <path d="M6.18818931,157.702886 L6.9797019,157.702886 C8.73819823,157.702886 10.1637412,156.277344 10.1637412,154.518847 L10.1637412,141.284997 C10.1637412,139.525528 8.73916774,138.098268 6.9797019,138.094961 L6.18818931,138.094961 C4.42774994,138.098261 3.00145354,139.524557 2.99815374,141.284997 L2.99815374,154.512851 C3.01748365,154.648432 3.04552444,154.782627 3.08210204,154.914604 C3.2028714,155.866516 3.7560055,156.709492 4.58117891,157.199197 C5.05997384,157.512449 5.6162514,157.686805 6.18818931,157.702886 Z" id="Path" fill="#FFFFFF"></path>
                <path d="M46.1715675,68.3099347 C46.4698038,68.7149904 46.7900905,69.103338 47.1309767,69.4732184 C50.5891363,73.3734518 55.9224229,75.0384895 60.9853419,73.798514 C66.0482609,72.5585386 70.0085186,68.6173895 71.2729676,63.5605271 C72.5374165,58.5036648 70.8981939,53.1623872 67.0147323,49.6854037 C66.633421,49.341341 66.2330331,49.0190287 65.8154708,48.7199982 C65.4077219,48.4261791 64.9759878,48.1743342 64.5442536,47.9224893 C59.1307455,44.831516 52.3298817,45.6630307 47.8205521,49.9672302 L47.448781,50.3330049 C47.2269176,50.5668609 47.0350358,50.8366947 46.8491503,51.0885397 C46.7352204,51.2264547 46.6212906,51.3583735 46.5133571,51.4962886 C46.3154789,51.7481335 46.0876192,51.9699969 45.9137263,52.2338344 C45.7997965,52.401731 45.7278408,52.5996091 45.6199072,52.7675057 C45.5119737,52.9354024 45.3320845,53.2891845 45.1941694,53.553022 C42.8793878,57.7346596 42.9363375,62.8259562 45.3440771,66.9547692 C45.595567,67.4209108 45.8717911,67.8732778 46.1715675,68.3099347 L46.1715675,68.3099347 Z" id="Path" fill="#FFFFFF"></path>
                <path d="M97.4340001,73.874508 C102.60941,73.9339784 107.377423,71.0745616 109.762408,66.4810609 C110.069737,65.9453196 110.338261,65.3882337 110.565913,64.8140875 C111.874757,61.5397907 111.861859,57.8853411 110.529936,54.6203648 L110.487961,54.4764534 C110.265767,53.9750755 110.015525,53.4866031 109.738423,53.0133544 L109.738423,52.9833728 C109.512913,52.5469579 109.264726,52.122639 108.994881,51.7121556 C108.952907,51.6461962 108.886947,51.5862332 108.838977,51.5202738 C108.593128,51.1844806 108.317298,50.8726726 108.041468,50.5548683 C107.281548,49.6503247 106.411304,48.8445431 105.451063,48.1563453 C101.321258,45.2469378 95.9312652,44.8282529 91.4017148,47.0650173 C91.1558662,47.1789472 90.9280065,47.3168623 90.6941505,47.448781 C90.4602945,47.5806998 90.2804053,47.6586518 90.0945198,47.7785779 C89.0650552,48.4391424 88.1100827,49.2091518 87.2462737,50.0751637 C83.3540976,54.1486458 82.2691098,60.1520558 84.4892509,65.3302085 C86.709392,70.5083611 91.8059772,73.8614119 97.4399964,73.8505228 L97.4340001,73.874508 Z" id="Path" fill="#FFFFFF"></path>
                <path d="M149.637853,58.6019129 C149.601757,51.8803444 145.874358,45.7225346 139.935827,42.573783 C140.060389,41.8138589 140.136496,41.0467822 140.163687,40.2771973 C140.153771,30.1707816 131.963376,21.9803869 121.85696,21.9704706 C121.41923,21.9704706 121.011481,22.0724078 120.579747,22.1023893 C120.135973,15.631978 116.283355,9.88627972 110.465988,7.01898125 C104.648621,4.15168278 97.7451122,4.59583707 92.3431351,8.1849597 C88.9578274,3.07483177 83.236258,0.00201994421 77.1065178,0.00201994421 C70.9767775,0.00201994421 65.2552081,3.07483177 61.8699005,8.1849597 C59.2862102,6.80297182 56.4050775,6.07034093 53.47507,6.05027424 C44.5838123,6.07276974 36.9951907,12.4826255 35.4861476,21.2449174 C34.9224947,21.1909506 34.3708344,21.0770208 33.7891926,21.0770208 C23.6700975,21.0703918 15.4597264,29.2646589 15.446488,39.3837475 C15.4608374,40.8406195 15.6521217,42.2903533 16.0161373,43.7010888 C10.9069166,45.43306 6.84075489,49.3603856 4.93240137,54.4063788 C3.02404784,59.452372 3.47374522,65.0875587 6.15820777,69.7670374 C2.71072879,74.0269711 1.38311791,79.6214246 2.5489602,84.9761383 C3.71480249,90.3308519 7.24807062,94.8669821 12.1545152,97.3080776 L12.1545152,97.4100149 C12.1704828,101.934138 15.1198345,105.924865 19.4400288,107.267944 C18.4385578,108.655893 17.9780154,110.361605 18.1448264,112.06499 L20.2315414,132.194595 C19.2368635,131.579714 18.0965987,131.240325 16.927576,131.2112 C13.8603904,131.2388 11.2054157,133.349926 10.4875418,136.332047 C9.47438468,135.557713 8.2424738,135.123291 6.96770928,135.090811 L6.18818931,135.090811 C2.76957699,135.09412 0,137.866383 0,141.284997 L0,154.512851 C0.0185516658,156.002354 0.581647611,157.433556 1.58302517,158.536373 L1.58302517,166.859248 C1.56894238,171.657867 3.51890781,176.253285 6.9797019,179.577416 C10.627318,183.044423 15.4750271,184.965456 20.5073716,184.938403 L21.1609691,184.938403 L32.6438979,184.68627 C39.4789185,184.212923 45.4855626,179.982859 48.2342973,173.707031 C52.3706543,166.802316 52.5395018,158.223035 48.6780241,151.160915 L47.448781,149.362023 C55.9334403,156.308029 66.5610214,160.102686 77.5262593,160.101409 C101.115733,160.101409 125.994413,141.872635 131.702897,107.77763 L132.458432,107.77763 C138.186825,107.767728 142.828138,103.126415 142.83804,97.3980223 C142.83804,97.3140739 142.83804,97.236122 142.83804,97.1521736 C148.80194,94.8086074 153.091046,89.4976725 154.126731,83.1740854 C155.162417,76.8504984 152.791623,70.4487959 147.886931,66.3251569 C149.033985,63.9117127 149.631961,61.2740677 149.637853,58.6019129 Z M132.458432,104.77348 L132.086661,104.77348 C132.63207,100.768748 132.914502,96.7325837 132.93214,92.6909209 L132.93214,90.6701653 C133.468243,90.6437946 134.002626,90.5897558 134.533154,90.508265 L134.683062,90.4662908 C135.152672,90.618033 135.604911,90.8190283 136.032231,91.0659216 C136.570656,91.3425408 137.073945,91.6827643 137.531308,92.0792975 C138.376185,92.9157546 139.005775,93.9444965 139.366178,95.0774513 C139.520858,95.5669666 139.623365,96.0714601 139.67199,96.5825244 C139.743472,96.8549778 139.799526,97.1312469 139.839887,97.4100149 C139.804632,97.652236 139.756595,97.8924236 139.695975,98.1295718 C139.356685,101.881524 136.225591,104.763584 132.458432,104.791469 L132.458432,104.77348 Z M77.5262593,55.112062 C76.3387199,55.1394551 75.1904159,55.5425161 74.2462791,56.263353 C73.8988132,54.8332954 73.3666671,53.4545532 72.6632539,52.1618787 C75.7543398,53.0878824 79.0457485,53.1107683 82.1494124,52.2278381 C81.5025606,53.4870297 81.0170294,54.8227442 80.7043023,56.2033899 C79.7798353,55.5263259 78.6716492,55.145779 77.5262593,55.112062 Z M45.5719368,172.291903 C43.327856,177.583477 38.3408775,181.199671 32.6139163,181.688116 L21.0650281,181.939961 C16.6307398,182.074982 12.3218886,180.457008 9.0724132,177.436734 C6.20077609,174.674245 4.58631118,170.855873 4.60500085,166.871241 L4.60500085,160.371243 C5.12348503,160.552236 5.66420697,160.661187 6.21217454,160.695044 L7.00368713,160.695044 C9.61601457,160.677839 11.9320303,159.011174 12.7781312,156.539603 C13.9493464,157.541473 15.4344283,158.101561 16.9755465,158.122628 C20.7116833,158.116027 23.7387766,155.088934 23.7453776,151.352797 L23.7453776,137.987028 C23.7453776,137.72319 23.6194551,137.501327 23.5954699,137.243485 C23.7100315,137.004831 23.7576964,136.739566 23.733385,136.475958 L21.1729617,111.753182 C20.9716153,110.1521 21.7550995,108.587499 23.1577395,107.789623 C23.3179582,107.703536 23.4843071,107.62938 23.655433,107.56776 C24.018671,107.388762 24.406782,107.265456 24.806724,107.201985 C25.0076612,107.205107 25.2080892,107.223146 25.4063548,107.255952 C27.4312511,107.279166 29.1223533,108.805784 29.3519251,110.817758 L30.305338,120.070061 L31.2707435,129.388323 L31.7144702,133.633708 C28.8157994,133.878274 26.2651633,135.644044 25.0158415,138.271077 C23.7665196,140.898109 24.0065439,143.991017 25.6462071,146.393851 L31.5105958,154.962574 C25.8361111,159.555455 23.5261273,167.138279 25.6761886,174.11478 C25.9263079,174.899332 26.7566251,175.341104 27.5470365,175.110167 C28.3382976,174.868139 28.7838188,174.030774 28.5424236,173.239319 C28.4105048,172.789596 28.3445454,172.339873 28.2486045,171.89015 C26.9979821,165.996182 29.4304321,159.930452 34.4068123,156.533607 C35.0899684,156.067856 35.2670343,155.136918 34.8025686,154.452888 L28.0927005,144.696896 C27.3153268,143.564447 27.020679,142.169149 27.2738158,140.819086 C27.5269527,139.469022 28.3070533,138.275239 29.4418697,137.501327 C30.5003673,136.795294 31.7764913,136.491152 33.0396542,136.643855 L34.5147458,137.075589 C35.360051,137.464178 36.0835242,138.07571 36.6074571,138.844499 L43.1674175,148.438591 L46.1655712,152.845877 C49.3571134,158.991368 49.1323971,166.352532 45.5719368,172.291903 Z M2.99815374,141.284997 C3.00145354,139.524557 4.42774994,138.098261 6.18818931,138.094961 L6.9797019,138.094961 C8.73916774,138.098268 10.1637412,139.525528 10.1637412,141.284997 L10.1637412,154.512851 C10.1637412,156.271347 8.73819823,157.69689 6.9797019,157.69689 L6.18818931,157.69689 C5.61683381,157.682598 5.06060158,157.510332 4.58117891,157.199197 C3.7560055,156.709492 3.2028714,155.866516 3.08210204,154.914604 C3.04552444,154.782627 3.01748365,154.648432 2.99815374,154.512851 L2.99815374,141.284997 Z M16.9395686,134.215331 C18.3607697,134.225603 19.6530441,135.041409 20.2735156,136.320054 C20.5407539,136.81874 20.6866147,137.373421 20.6992534,137.939057 L20.6992534,137.987028 L20.6992534,151.352797 C20.6992534,152.700287 19.9803758,153.94542 18.8134147,154.619165 C17.6464537,155.292911 16.2086983,155.292911 15.0417373,154.619165 C13.8747762,153.94542 13.1558986,152.700287 13.1558986,151.352797 L13.1558986,137.987028 C13.1558986,136.984635 13.5549114,136.023472 14.264834,135.3158 C14.9747566,134.608127 15.9371813,134.212163 16.9395686,134.215331 L16.9395686,134.215331 Z M109.762408,66.4570757 C107.169293,71.2855603 102.00695,74.1673515 96.5359634,73.8405165 C91.0649771,73.5136815 86.2824405,70.0377863 84.2826205,64.9349212 C82.2828005,59.8320561 83.4301666,54.0322237 87.2222885,50.0751637 C88.0860975,49.2091518 89.04107,48.4391424 90.0705345,47.7785779 C90.2624164,47.6586518 90.4722871,47.5567146 90.6701653,47.448781 C90.8680434,47.3408475 91.1318809,47.1789472 91.3777296,47.0650173 C95.90728,44.8282529 101.297273,45.2469378 105.427078,48.1563453 C106.387318,48.8445431 107.257562,49.6503247 108.017483,50.5548683 C108.293313,50.8726726 108.569143,51.1844806 108.814992,51.5202738 C108.862962,51.5862332 108.928922,51.6461962 108.970896,51.7121556 C109.240741,52.122639 109.488927,52.5469579 109.714438,52.9833728 L109.714438,53.0133544 C109.99154,53.4866031 110.241782,53.9750755 110.463976,54.4764534 L110.50595,54.6203648 C111.837874,57.8853411 111.850772,61.5397907 110.541928,64.8140875 C110.322034,65.3875646 110.061534,65.9446347 109.762408,66.4810609 L109.762408,66.4570757 Z M46.2015491,68.2559679 C45.9017727,67.819311 45.6255486,67.366944 45.3740586,66.9008025 C42.966319,62.7719895 42.9093694,57.6806929 45.2241509,53.4990553 C45.362066,53.2352177 45.4939848,52.9713802 45.6498888,52.713539 C45.8057928,52.4556978 45.829778,52.3477642 45.9437078,52.1798676 C46.1235971,51.9160301 46.3514568,51.6941667 46.5433386,51.4423218 C46.6512721,51.3044067 46.765202,51.172488 46.8791318,51.0345729 C47.0890026,50.782728 47.2808844,50.5128941 47.4787626,50.2790381 L47.8505336,49.9132634 C52.323087,45.5319768 59.1778473,44.6938724 64.5742352,47.8685225 C65.0059693,48.1203675 65.4377034,48.3722124 65.8454523,48.6660314 C66.2630146,48.9650619 66.6634025,49.2873742 67.0447138,49.6314369 C70.9281754,53.1084204 72.5673981,58.449698 71.3029491,63.5065604 C70.0385001,68.5634227 66.0782425,72.5045718 61.0153234,73.7445473 C55.9524044,74.9845228 50.6191178,73.319485 47.1609583,69.4192516 C46.8113576,69.0676299 46.4810761,68.6973142 46.1715675,68.3099347 L46.2015491,68.2559679 Z M15.1646616,97.4100149 C15.1646616,97.2541109 15.2426136,97.1281884 15.2486099,96.9782807 C15.2996329,96.4862518 15.3980288,96.0002963 15.542429,95.5271743 C16.0394326,93.6555612 17.2663189,92.061473 18.9483316,91.1018994 C19.3907142,90.851529 19.8592303,90.6504491 20.3454712,90.5022687 L20.4474085,90.5022687 C20.9331094,90.6042059 21.4487918,90.6102022 21.9464853,90.664169 L22.114382,90.664169 L22.114382,92.6849246 C22.1200774,96.6870016 22.4368369,100.682582 23.0617985,104.635565 C22.9298798,104.683536 22.7919647,104.713517 22.6600459,104.767484 L22.5401198,104.767484 C18.9641962,104.735117 15.939487,102.114211 15.3985176,98.5792948 C15.2872676,98.1969404 15.2090287,97.8057458 15.1646616,97.4100149 Z M43.5511812,143.653538 L39.1079173,137.165533 C38.4789492,136.23324 37.6619521,135.442796 36.7093943,134.844962 L36.9792282,133.243948 L40.7748908,110.553921 C41.1607003,108.313577 43.2896184,106.810179 45.5299626,107.195989 C47.7703068,107.581798 49.2737043,109.710716 48.8878948,111.95106 L46.8011798,124.303454 L46.6152943,125.406774 L46.5013644,126.09635 L46.1715675,128.051146 L43.8090224,141.998557 L43.5511812,143.653538 Z M77.5262593,157.103256 C65.9411206,157.082631 54.8073918,152.60853 46.4294087,144.606951 L48.7379871,130.947363 C56.79716,139.203105 68.061023,143.525735 79.574192,142.781091 C91.0873609,142.036446 101.700553,136.298861 108.629106,127.073748 C108.950447,126.645293 109.018801,126.077951 108.808419,125.585434 C108.598036,125.092917 108.140881,124.75005 107.609157,124.685988 C107.077434,124.621926 106.551924,124.846401 106.230583,125.274856 C105.996727,125.586664 105.702908,125.874486 105.457059,126.150317 C98.693779,134.627498 88.5101367,139.656962 77.6677613,139.874806 C66.825386,140.09265 56.4479408,135.476297 49.3496105,127.277622 L49.6614185,125.436756 L51.856067,112.442758 C52.5187597,108.572085 49.9213664,104.896022 46.0516414,104.227816 C44.1913687,103.890221 42.2737713,104.323088 40.738913,105.427078 C39.1930122,106.514458 38.1459262,108.174683 37.8307038,110.038238 L34.5926978,129.280389 C34.4487864,129.022548 34.304875,128.770703 34.16696,128.512862 L32.3021083,110.523939 C31.929434,107.243865 29.3204492,104.667337 26.035967,104.33575 C25.424956,100.488189 25.1162016,96.5986862 25.1125357,92.7029135 L25.1125357,90.6821579 C32.9927249,89.9269451 39.0164105,83.3198204 39.0419579,75.4035664 C39.0419579,75.1397289 38.9759986,74.8938803 38.9640059,74.6300428 C41.1837299,74.0781881 43.2512973,73.0351833 45.0142802,71.5779223 C49.6025921,76.6845513 56.8135773,78.5275065 63.2894506,76.2486183 C69.7653238,73.9697302 74.2329771,68.017011 74.6120539,61.1623362 C74.6120539,61.0663953 74.7199874,61.0064322 74.7199874,60.904495 C74.6722244,59.8720512 75.1958335,58.8969215 76.082843,58.3664165 C76.9698525,57.8359115 78.0766698,57.8359115 78.9636793,58.3664165 C79.8506888,58.8969215 80.3742979,59.8720512 80.3265349,60.904495 C80.3265349,61.0484064 80.446461,61.1443473 80.4824389,61.276266 C81.0535282,68.2383307 85.8325753,74.1391351 92.5240411,76.1443218 C99.2155068,78.1495085 106.452083,75.8493454 110.757795,70.3486793 C112.279604,71.9277906 114.118944,73.1662797 116.154472,73.9824416 C116.112498,74.4561499 116.010561,74.9118692 116.010561,75.3975701 C116.036108,83.3138241 122.059794,89.9209488 129.939983,90.6761616 L129.939983,92.6969172 C129.933987,134.545147 102.932614,157.103256 77.5262593,157.103256 Z" id="Shape" fill="#000000"></path>
                <path d="M81.8615896,108.791006 L76.6987689,108.791006 C75.8708516,108.791006 75.199692,109.462166 75.199692,110.290083 C75.199692,111.118001 75.8708516,111.78916 76.6987689,111.78916 L81.8615896,111.78916 C83.8066816,111.963099 85.2973266,113.592993 85.2973266,115.545847 C85.2973266,117.498701 83.8066816,119.128594 81.8615896,119.302533 L76.6987689,119.302533 C75.8708516,119.302533 75.199692,119.973693 75.199692,120.80161 C75.199692,121.629528 75.8708516,122.300687 76.6987689,122.300687 L81.8615896,122.300687 C85.4568444,122.115091 88.2767223,119.145889 88.2767223,115.545847 C88.2767223,111.945805 85.4568444,108.976603 81.8615896,108.791006 Z" id="Path" fill="#000000"></path>
                <path d="M99.3348296,98.9750511 C97.678995,98.9750511 96.3366758,100.31737 96.3366758,101.973205 C96.3366758,103.629039 97.678995,104.971359 99.3348296,104.971359 C100.990664,104.971359 102.332983,103.629039 102.332983,101.973205 C102.332983,100.31737 100.990664,98.9750511 99.3348296,98.9750511 Z" id="Path" fill="#000000"></path>
                <path d="M57.1448102,98.9750511 C55.4889756,98.9750511 54.1466565,100.31737 54.1466565,101.973205 C54.1466565,103.629039 55.4889756,104.971359 57.1448102,104.971359 C58.8006448,104.971359 60.1429639,103.629039 60.1429639,101.973205 C60.1429639,100.31737 58.8006448,98.9750511 57.1448102,98.9750511 Z" id="Path" fill="#000000"></path>
            </g>
        </g>
    </g>
</svg>
