<?xml version="1.0" encoding="UTF-8"?>
<svg width="25px" height="25px" viewBox="0 0 25 25" version="1.1" xmlns="http://www.w3.org/2000/svg" xmlns:xlink="http://www.w3.org/1999/xlink">
    <g id="Compte-Desktop" stroke="none" stroke-width="1" fill="none" fill-rule="evenodd" stroke-linecap="round" stroke-linejoin="round">
        <g id="Mobile-Gestion-des-locations" transform="translate(-361.000000, -3150.000000)">
            <g id="Group-10" transform="translate(0.000000, 3135.000000)">
                <g id="Group-9" transform="translate(356.000000, 15.000000)">
                    <g id="HOSTNFLY_PICTO_Icon" transform="translate(5.000000, 0.000000)">
                        <g>
                            <path d="M12.152,12.775 C16.0192822,12.7754078 19.657966,14.6069898 21.962,17.713 C24.3316428,13.5893656 23.8707544,8.42423604 20.8084515,4.78529819 C17.7461485,1.14636033 12.7356814,-0.190127769 8.26785118,1.44022821 C3.80002092,3.0705842 0.827904892,7.31999677 0.828999689,12.076 C0.828534846,14.0552673 1.35007277,15.9996517 2.341,17.713 C4.64524385,14.6067071 8.28436564,12.7750912 12.152,12.775 Z M12.191,1.69099991 C14.3614354,1.69059552 16.3183806,2.99772297 17.1492505,5.0028277 C17.9801204,7.00793243 17.5212751,9.31610869 15.9866886,10.8509813 C14.452102,12.3858539 12.1440113,12.8451294 10.1387517,12.0146332 C8.13349219,11.184137 6.82599991,9.2274354 6.82599991,7.057 C6.82573475,5.63394028 7.3908571,4.26907462 8.39701852,3.26272566 C9.40317994,2.25637669 10.7679403,1.69099991 12.191,1.69099991 Z" id="Shape" stroke="currentColor" stroke-width="1.5" fill="currentColor" fill-rule="nonzero"></path>
                            <circle id="Oval" stroke="currentColor" transform="translate(12.190948, 7.057203) rotate(-9.217000) translate(-12.190948, -7.057203) " cx="12.1909478" cy="7.05720346" r="5.365"></circle>
                            <path d="M12.152,12.775 C8.28436564,12.775 4.64524385,14.6067071 2.341,17.713 C4.35553074,21.2299068 8.09848041,23.3994159 12.1515,23.3994159 C16.2045196,23.3994159 19.9474693,21.2299068 21.962,17.713 C19.657966,14.6069898 16.0192822,12.7754078 12.152,12.775 Z" id="Path" stroke="currentColor" stroke-width="1.5"></path>
                        </g>
                    </g>
                </g>
            </g>
        </g>
    </g>
</svg>
